<svg xmlns="http://www.w3.org/2000/svg" viewBox="0 0 100 100">
  <defs>
    <linearGradient id="grad" x1="0%" y1="0%" x2="100%" y2="100%">
      <stop offset="0%" style="stop-color:#8B5CF6"/>
      <stop offset="100%" style="stop-color:#D946EF"/>
    </linearGradient>
  </defs>

  <!-- Message bubble -->
  <path
    d="M85 15H15C9 15 5 19 5 25v45c0 6 4 10 10 10h15v15c0 1.5 1.8 2.3 3 1.3L50 80h35c6 0 10-4 10-10V25c0-6-4-10-10-10z"
    fill="url(#grad)"
  />

  <!-- Music note inside bubble -->
  <g fill="white">
    <!-- Note head (bottom left) -->
    <ellipse cx="35" cy="58" rx="9" ry="7" transform="rotate(-20 35 58)"/>
    <!-- Note head (top right) -->
    <ellipse cx="62" cy="50" rx="9" ry="7" transform="rotate(-20 62 50)"/>
    <!-- Stem 1 -->
    <rect x="42" y="28" width="3" height="32" rx="1.5"/>
    <!-- Stem 2 -->
    <rect x="69" y="20" width="3" height="32" rx="1.5"/>
    <!-- Beam connecting notes -->
    <path d="M43.5 28 L72 20 L72 26 L43.5 34 Z"/>
  </g>
</svg>
